M48
; DRILL file {KiCad 8.0.5} date 2024-10-02T16:46:22-0300
; FORMAT={-:-/ absolute / inch / decimal}
; #@! TF.CreationDate,2024-10-02T16:46:22-03:00
; #@! TF.GenerationSoftware,Kicad,Pcbnew,8.0.5
; #@! TF.FileFunction,Plated,1,2,PTH
FMAT,2
INCH
; #@! TA.AperFunction,Plated,PTH,ComponentDrill
T1C0.0197
; #@! TA.AperFunction,Plated,PTH,ComponentDrill
T2C0.0315
; #@! TA.AperFunction,Plated,PTH,ComponentDrill
T3C0.0394
; #@! TA.AperFunction,Plated,PTH,ComponentDrill
T4C0.0433
; #@! TA.AperFunction,Plated,PTH,ComponentDrill
T5C0.0472
; #@! TA.AperFunction,Plated,PTH,ComponentDrill
T6C0.0551
%
G90
G05
T1
X0.8315Y0.6814
X0.8319Y0.7786
X0.8327Y0.8798
X0.8331Y1.2932
X0.8343Y1.1912
X0.8343Y1.0877
X0.8343Y0.9842
X1.1358Y0.6755
X1.1362Y0.7727
X1.137Y0.8739
X1.1374Y1.2873
X1.1386Y1.1853
X1.1386Y1.0818
X1.1386Y0.9782
X2.1134Y2.1969
X2.1134Y1.8969
X2.2134Y2.1969
X2.2134Y1.8969
X2.3134Y2.1969
X2.3134Y1.8969
X2.4134Y2.1969
X2.4134Y1.8969
T2
X0.5413Y0.6458
X0.5413Y0.4489
X1.387Y0.2988
X1.387Y0.1634
X1.3898Y0.6734
X1.3898Y0.538
X1.7776Y0.8795
X1.7776Y0.4795
X1.8094Y1.65
X1.8094Y1.25
X2.0965Y1.6469
X2.0965Y1.2469
X2.0969Y0.8713
X2.0969Y0.4713
X2.3996Y0.8626
X2.3996Y0.4626
X2.4016Y1.6469
X2.4016Y1.2469
X2.6807Y0.8524
X2.6807Y0.4524
X2.6913Y1.6465
X2.6913Y1.2465
T3
X0.6496Y2.1654
X0.6496Y1.6142
X1.3976Y2.1654
X1.3976Y1.6142
T4
X2.9478Y1.2516
X2.9478Y1.1516
X2.9478Y1.0516
T5
X0.332Y2.0413
X0.332Y1.8913
X0.332Y1.1949
X0.332Y1.0449
X3.7869Y2.2138
X3.7869Y2.0638
X3.8015Y0.7571
X3.8015Y0.6071
T6
X3.2898Y1.2591
X3.2898Y1.0591
M30
